<?xml version="1.0" encoding="utf-8"?>
<!-- Generator: Adobe Illustrator 24.3.0, SVG Export Plug-In . SVG Version: 6.00 Build 0)  -->
<svg version="1.1" id="Calque_1" xmlns="http://www.w3.org/2000/svg" xmlns:xlink="http://www.w3.org/1999/xlink" x="0px" y="0px"
	 viewBox="0 0 94.4 28.7" style="enable-background:new 0 0 94.4 28.7;" xml:space="preserve">
<style type="text/css">
	.st0{fill:#0065FC;}
</style>
<path class="st0" d="M11.8,21.1c-0.2-0.7-0.5-1.4-0.7-1.9c-0.2-0.6-0.4-1-0.6-1.4c-0.9,0.3-1.9,0.5-3,0.6c0,1.5,0,2.8,0.1,3.8
	c0,0.7,0,1.2,0.1,1.7c0,0.4,0.1,0.8,0.1,1.2c0,0.3,0.1,0.6,0.1,0.9c0,0.3,0.1,0.6,0.2,0.8c-0.5,0.4-0.9,0.6-1.4,0.8
	c-0.4,0.2-0.8,0.3-1.1,0.4c-0.4,0.1-0.8,0.1-1.1,0.1c-0.1-0.3-0.2-0.7-0.3-1.1c-0.1-0.4-0.2-0.8-0.2-1.5C4,24.8,4,24,4,23
	s0-2.2,0.1-3.7c0-0.2,0-0.3,0-0.5c0-0.2,0-0.3,0-0.5c-0.2,0-0.4,0-0.7-0.1c-0.2,0-0.4,0-0.6-0.1c-0.1-0.4-0.2-0.7-0.3-1
	c0-0.3-0.1-0.6-0.1-0.7c0-0.2,0-0.4,0.1-0.6C3,16,3.4,16,3.7,16h0.5c0-1,0.1-2,0.1-3c0-1,0.1-2,0.1-3c0-1,0.1-1.9,0.1-2.8
	c0-0.9,0-1.7,0.1-2.4C4,5.3,3.4,5.9,2.9,6.7C2.3,7.4,2,8.3,1.8,9.3C1.5,9.2,1.2,9.1,1,8.8C0.8,8.6,0.7,8.3,0.5,8.1
	c-0.2-0.3-0.3-0.6-0.4-1C0,6.6,0,6.2,0.1,5.7c0.1-0.5,0.3-0.9,0.5-1.3C0.8,4,1.1,3.6,1.4,3.3C1.7,3,2,2.7,2.3,2.6
	c0.5-0.3,1-0.6,1.5-0.8C4.4,1.5,5,1.3,5.6,1.1c0.3-0.3,0.5-0.5,0.8-0.7C6.8,0.2,7.1,0.1,7.4,0C7.8-0.1,8,0.2,8,0.8
	c0.2,0,0.4,0,0.7,0c0.2,0,0.5,0,0.7,0c0.9,0,1.8,0.1,2.8,0.4c1,0.3,1.8,0.7,2.6,1.4c0.8,0.6,1.5,1.4,2,2.4c0.5,1,0.8,2.2,0.8,3.6
	c0,1.6-0.4,3.1-1.2,4.5c-0.8,1.4-1.8,2.5-3.2,3.4c0.2,0.4,0.4,0.9,0.6,1.6s0.5,1.3,0.8,2.1c0.4,1,0.8,1.9,1.2,2.8
	c0.4,0.8,0.9,1.6,1.4,2.2c0.5,0.6,1,1.1,1.5,1.5c0.5,0.4,1,0.6,1.5,0.7c-0.3,0.5-0.7,0.8-1.1,1c-0.4,0.2-0.8,0.3-1.2,0.4
	c-0.4,0.1-0.9,0.1-1.4,0c-0.7-0.1-1.3-0.5-1.8-1c-0.5-0.5-0.9-1.1-1.3-1.9c-0.4-0.7-0.7-1.5-1-2.3C12.3,22.6,12,21.8,11.8,21.1z
	 M7.7,6.1c0,0.5,0,1.1,0,1.9c0,0.7,0,1.5-0.1,2.4c0,0.8,0,1.7,0,2.7c0,0.9,0,1.8,0,2.7c0.6-0.1,1.3-0.2,2.1-0.5
	c0.8-0.2,1.5-0.6,2.1-1.1c0.7-0.5,1.2-1.1,1.7-2c0.4-0.8,0.7-1.9,0.7-3.2c0-1-0.2-1.8-0.5-2.5c-0.3-0.7-0.8-1.3-1.3-1.7
	c-0.5-0.4-1.1-0.8-1.8-0.9C9.8,3.7,9.2,3.6,8.5,3.6c-0.1,0-0.2,0-0.4,0c-0.1,0-0.2,0-0.4,0C7.7,4.4,7.7,5.2,7.7,6.1z M24.3,25.1
	c-1.6,0-2.9-0.6-3.8-1.7c-0.9-1.1-1.3-2.5-1.3-4.3c0-1.2,0.2-2.4,0.5-3.5c0.4-1.1,0.9-2.1,1.5-2.8c0.6-0.8,1.3-1.4,2.1-1.9
	c0.8-0.5,1.7-0.7,2.6-0.7c0.9,0,1.6,0.3,2.2,0.9c0.6,0.6,0.9,1.5,0.9,2.6c0,0.8-0.2,1.5-0.5,2.3c-0.3,0.7-0.8,1.4-1.3,2
	c-0.5,0.6-1.1,1-1.7,1.4c-0.6,0.4-1.2,0.5-1.8,0.5c-0.4,0-0.7,0-0.9-0.1c-0.3-0.1-0.5-0.2-0.7-0.4c0.1,1.3,0.4,2.3,0.9,2.8
	c0.5,0.5,1.2,0.8,2,0.8c0.6,0,1.1-0.1,1.5-0.4c0.4-0.2,0.8-0.5,1.1-0.8c0.3-0.3,0.6-0.6,0.7-0.9c0.2-0.3,0.3-0.6,0.4-0.7
	c0.1-0.1,0.2-0.2,0.4-0.2c0.2,0,0.3,0.1,0.3,0.4c0,0.3-0.1,0.7-0.3,1.2c-0.2,0.5-0.4,1-0.8,1.6c-0.4,0.5-0.9,1-1.5,1.4
	C25.9,24.9,25.2,25.1,24.3,25.1z M25.9,11.7c-0.1,0-0.4,0.2-0.8,0.5c-0.4,0.3-0.8,0.7-1.2,1.3c-0.4,0.6-0.8,1.2-1.2,2
	c-0.4,0.8-0.6,1.7-0.7,2.6c1.4-0.3,2.5-0.8,3.3-1.5c0.8-0.7,1.2-1.7,1.2-3.1c0-0.7-0.1-1.1-0.2-1.4C26.2,11.9,26,11.7,25.9,11.7z
	 M36.8,18c0.5,0.2,1,0.4,1.5,0.5c0.5,0.2,0.9,0.4,1.2,0.6c0.4,0.2,0.6,0.5,0.8,0.8c0.2,0.3,0.3,0.7,0.3,1.2c0,0.6-0.1,1.1-0.4,1.6
	c-0.2,0.5-0.6,0.9-1.1,1.3c-0.5,0.4-1,0.7-1.7,0.9c-0.7,0.2-1.4,0.4-2.2,0.4c-0.9,0-1.7-0.1-2.2-0.3c-0.6-0.2-1-0.4-1.3-0.6
	c-0.3-0.2-0.5-0.5-0.6-0.7c-0.1-0.2-0.1-0.4-0.1-0.6c0-0.3,0.1-0.6,0.2-0.9c0.1-0.4,0.3-0.7,0.7-1.1c0.1-0.2,0.3-0.3,0.5-0.5
	c0.3-0.3,0.7-0.5,1-0.5c0,0.5,0,1,0.2,1.3c0.2,0.3,0.4,0.6,0.7,0.8c0.3,0.2,0.6,0.3,1,0.4c0.4,0.1,0.7,0.1,1.1,0.1
	c0.3,0,0.7,0,1-0.1c0.4-0.1,0.7-0.2,0.9-0.4c0.3-0.2,0.5-0.3,0.7-0.5c0.2-0.2,0.3-0.4,0.3-0.7c0-0.3-0.1-0.5-0.3-0.6
	c-0.2-0.2-0.5-0.3-0.8-0.4c-0.3-0.1-0.6-0.2-1-0.2c-0.4-0.1-0.7-0.1-1-0.2c-0.3-0.1-0.8-0.2-1.3-0.3c-0.5-0.1-1.1-0.4-1.6-0.6
	c-0.5-0.3-1-0.7-1.4-1.1c-0.4-0.5-0.6-1.1-0.6-1.9c0-0.9,0.2-1.7,0.7-2.3c0.5-0.7,1-1.2,1.7-1.7c0.7-0.5,1.4-0.8,2.1-1.1
	c0.8-0.2,1.4-0.4,2-0.4c0.3,0,0.6,0,1,0.1c0.4,0.1,0.7,0.2,1,0.4c0.3,0.2,0.6,0.4,0.7,0.8c0.2,0.3,0.3,0.8,0.3,1.3
	c0,0.5,0,0.9-0.1,1.3c-0.1,0.3-0.2,0.6-0.4,0.7c-0.1,0.2-0.3,0.3-0.5,0.3c-0.2,0-0.5,0.1-0.7,0.1c-0.2,0-0.4,0-0.5-0.1
	c-0.1,0-0.3-0.1-0.5-0.1c-0.2,0-0.3-0.1-0.5-0.2c0.2-0.3,0.4-0.6,0.5-0.8c0.1-0.3,0.2-0.6,0.2-0.9c0-0.3-0.1-0.6-0.3-0.9
	c-0.2-0.3-0.4-0.4-0.8-0.4c-0.4,0-0.8,0.1-1.2,0.2c-0.4,0.2-0.7,0.4-1,0.7c-0.3,0.3-0.5,0.6-0.7,1c-0.2,0.4-0.2,0.7-0.2,1.2
	c0,0.6,0.2,1.2,0.7,1.8C35,17.1,35.8,17.6,36.8,18z M47.4,25.1c-1.6,0-2.9-0.6-3.8-1.7c-0.9-1.1-1.3-2.5-1.3-4.3
	c0-1.2,0.2-2.4,0.5-3.5c0.4-1.1,0.9-2.1,1.5-2.8c0.6-0.8,1.3-1.4,2.1-1.9c0.8-0.5,1.7-0.7,2.6-0.7c0.9,0,1.6,0.3,2.2,0.9
	c0.6,0.6,0.9,1.5,0.9,2.6c0,0.8-0.2,1.5-0.5,2.3c-0.3,0.7-0.8,1.4-1.3,2c-0.5,0.6-1.1,1-1.7,1.4c-0.6,0.4-1.2,0.5-1.8,0.5
	c-0.4,0-0.7,0-0.9-0.1c-0.3-0.1-0.5-0.2-0.7-0.4c0.1,1.3,0.4,2.3,0.9,2.8c0.5,0.5,1.2,0.8,2,0.8c0.6,0,1.1-0.1,1.5-0.4
	c0.4-0.2,0.8-0.5,1.1-0.8c0.3-0.3,0.6-0.6,0.7-0.9c0.2-0.3,0.3-0.6,0.4-0.7c0.1-0.1,0.2-0.2,0.4-0.2c0.2,0,0.3,0.1,0.3,0.4
	c0,0.3-0.1,0.7-0.3,1.2c-0.2,0.5-0.4,1-0.8,1.6c-0.4,0.5-0.9,1-1.5,1.4C49,24.9,48.3,25.1,47.4,25.1z M49,11.7
	c-0.1,0-0.4,0.2-0.8,0.5c-0.4,0.3-0.8,0.7-1.2,1.3c-0.4,0.6-0.8,1.2-1.2,2c-0.4,0.8-0.6,1.7-0.7,2.6c1.4-0.3,2.5-0.8,3.3-1.5
	c0.8-0.7,1.2-1.7,1.2-3.1c0-0.7-0.1-1.1-0.2-1.4C49.3,11.9,49.1,11.7,49,11.7z M63.9,13.9c0,0.3-0.1,0.7-0.3,1
	c-0.2,0.3-0.4,0.6-0.6,0.9c-0.3,0.3-0.6,0.6-0.9,0.8c-0.3,0.2-0.6,0.3-0.9,0.4c0.2-0.7,0.2-1.3,0.2-1.7c-0.1-0.4-0.2-0.7-0.4-0.9
	c-0.2-0.2-0.4-0.3-0.7-0.4c-0.4,0-0.8,0.2-1.2,0.7c-0.4,0.5-0.7,1.1-1,1.8c-0.3,0.7-0.5,1.4-0.7,2.2c-0.2,0.8-0.2,1.5-0.2,2.1
	c0,0.4,0,0.9,0,1.3c0,0.4,0.1,0.7,0.1,1.1c0.1,0.4,0.2,0.7,0.3,0.9c-0.1,0.1-0.4,0.3-0.7,0.4c-0.3,0.2-0.6,0.3-1,0.3
	c-0.3,0-0.6,0-0.9-0.2c-0.3-0.2-0.4-0.5-0.4-1.1c0-0.5-0.1-1.1-0.1-1.7c0-0.7,0-1.3,0-1.9c0-0.7,0-1.3,0.1-1.9
	c0-0.6,0.1-1.2,0.1-1.8c0-1,0.1-1.8,0.1-2.4s0-1.1,0-1.6c0-0.1,0.2-0.2,0.5-0.4c0.3-0.2,0.7-0.4,1.1-0.5c0.4-0.1,0.8-0.2,1.1-0.2
	c0.3,0,0.5,0,0.5,0.2c0,0.3,0,0.8-0.1,1.5c0,0.8-0.1,1.5-0.2,2.4c0.2-0.4,0.4-0.9,0.6-1.4c0.3-0.5,0.6-1,0.9-1.4
	c0.4-0.4,0.8-0.8,1.2-1.1c0.4-0.3,0.9-0.5,1.5-0.5c0.4,0,0.8,0.1,1,0.4c0.3,0.3,0.5,0.6,0.7,0.9c0.2,0.3,0.3,0.7,0.4,1
	C63.9,13.5,63.9,13.8,63.9,13.9z M69.6,22.9c0.2,0,0.5-0.4,0.8-1.1c0.4-0.8,0.7-1.7,1-2.7c0.3-1.1,0.6-2.1,0.8-3.3
	c0.2-1.1,0.3-2.1,0.2-2.8c0-0.3-0.1-0.5-0.2-0.6c-0.1-0.2-0.2-0.3-0.3-0.5c0.1-0.2,0.3-0.3,0.5-0.4c0.2-0.1,0.4-0.2,0.6-0.2
	c0.2-0.1,0.5-0.1,0.7-0.1c0.6,0,1,0.1,1.2,0.3c0.1,0.1,0.2,0.5,0.2,1c0,0.5-0.1,1.1-0.2,1.8c-0.1,0.7-0.2,1.4-0.4,2.2
	c-0.2,0.8-0.4,1.4-0.6,2.1c-0.2,0.6-0.5,1.3-0.8,2c-0.3,0.7-0.6,1.4-0.9,2c-0.3,0.6-0.7,1.2-1,1.7c-0.3,0.4-0.6,0.7-0.8,0.8
	c-0.5,0.2-1,0.3-1.5,0.3c-0.5,0-0.8-0.1-0.9-0.2c0,0-0.2-0.2-0.3-0.5c-0.2-0.3-0.4-0.6-0.6-1.1c-0.2-0.4-0.4-1-0.6-1.5
	c-0.2-0.6-0.4-1.3-0.6-1.9c-0.2-0.7-0.3-1.4-0.4-2.2c-0.1-0.8-0.2-1.6-0.2-2.3c-0.1-0.8-0.2-1.5-0.3-2.1c-0.1-0.7-0.4-1.2-0.6-1.6
	l1.7-0.7c0.1-0.1,0.3-0.1,0.5-0.2c0.2-0.1,0.4-0.1,0.6-0.1s0.4,0.1,0.5,0.3c0.2,0.1,0.3,0.4,0.3,0.8c0,0.4,0.1,0.9,0.1,1.5
	c0,0.6,0.1,1.2,0.1,1.8c0,0.6,0.1,1.3,0.1,1.9c0,0.6,0.1,1.2,0.1,1.7c0,0.5,0.1,1,0.2,1.5c0.1,0.5,0.2,1,0.3,1.4
	c0.1,0.4,0.2,0.7,0.3,1C69.3,22.7,69.4,22.9,69.6,22.9z M77.2,12.3c0-0.1,0.2-0.3,0.6-0.5c0.4-0.2,0.8-0.3,1.2-0.4
	c0.5-0.1,0.9-0.2,1.3-0.2c0.4,0,0.6,0.1,0.6,0.2c0,0.4,0,0.9-0.1,1.5c0,0.6-0.1,1.3-0.2,2c-0.1,0.7-0.1,1.4-0.2,2.1
	c-0.1,0.7-0.1,1.3-0.1,1.8c0,0.5-0.1,1.1-0.1,1.7c0,0.5-0.1,1.1-0.1,1.7c0,0.6,0,1.3,0,1.9c0,0.1-0.1,0.2-0.4,0.4
	c-0.2,0.1-0.5,0.2-0.8,0.2C78.6,25,78.3,25,78.1,25s-0.4,0-0.4-0.1c0-0.1-0.1-0.3-0.1-0.5c0-0.2-0.1-0.6-0.1-1c0-0.4-0.1-1-0.1-1.7
	c0-0.7,0-1.5,0-2.5c0.1-1.9,0.1-3.4,0-4.5C77.3,13.6,77.2,12.8,77.2,12.3z M79.6,5.3c0.5,0,0.9,0.1,1.3,0.4c0.4,0.3,0.6,0.7,0.6,1.1
	c0,0.4-0.1,0.7-0.3,1c-0.2,0.3-0.4,0.6-0.6,0.9c-0.3,0.3-0.6,0.5-0.9,0.6c-0.3,0.1-0.6,0.2-0.9,0.2c-0.4,0-0.7-0.1-0.9-0.2
	c-0.2-0.1-0.4-0.3-0.6-0.5c-0.1-0.2-0.2-0.4-0.2-0.6c0-0.2-0.1-0.4-0.1-0.6c0-0.2,0-0.5,0.1-0.8c0.1-0.3,0.2-0.6,0.4-0.8
	c0.2-0.3,0.4-0.5,0.8-0.6C78.7,5.3,79.1,5.3,79.6,5.3z M78.8,8.5c0.1,0,0.3,0,0.5-0.1c0.2-0.1,0.4-0.2,0.5-0.4
	c0.2-0.1,0.3-0.3,0.4-0.5c0.1-0.2,0.2-0.3,0.2-0.4c0-0.2-0.1-0.3-0.3-0.3c-0.1,0-0.3,0-0.5,0.1c-0.2,0.1-0.3,0.2-0.5,0.4
	c-0.2,0.1-0.3,0.3-0.4,0.4c-0.1,0.1-0.1,0.3-0.1,0.4C78.5,8.4,78.6,8.5,78.8,8.5z M93.4,22.9c0,0.2,0.1,0.3,0.2,0.5
	c0.1,0.1,0.2,0.2,0.3,0.4c0.1,0.1,0.3,0.2,0.5,0.2c-0.2,0.3-0.3,0.6-0.5,0.7c-0.1,0.1-0.2,0.1-0.2,0.1c-0.2,0.1-0.5,0.1-0.9,0.1
	c-0.4,0-0.8-0.1-1.2-0.4c-0.1-0.1-0.3-0.3-0.4-0.5c-0.1-0.2-0.2-0.4-0.3-0.8c-0.1-0.4-0.1-0.8-0.2-1.3c-0.3,0.7-0.7,1.3-1.1,1.7
	c-0.4,0.4-0.8,0.7-1.2,0.9c-0.4,0.3-0.9,0.4-1.4,0.5c-0.6,0-1.1,0-1.7-0.3c-0.5-0.3-1-0.6-1.3-1.1c-0.4-0.5-0.6-1.1-0.8-1.9
	c-0.2-0.7-0.2-1.5-0.2-2.5c0.1-1,0.3-1.8,0.6-2.6c0.3-0.8,0.7-1.4,1.1-2c0.4-0.6,0.9-1.1,1.3-1.5c0.5-0.4,0.9-0.8,1.3-1
	c0.4-0.3,0.8-0.5,1.1-0.6c0.3-0.1,0.5-0.2,0.6-0.2c0.3-0.1,0.5-0.1,0.7-0.1c0.2,0,0.4,0.1,0.5,0.3c0,0.1,0.1,0.2,0.2,0.2
	c0,0.1,0.1,0.2,0.2,0.4c0.1,0.1,0.1,0.3,0.2,0.5c-0.6,0.3-1.1,0.6-1.6,0.9c-0.5,0.3-0.9,0.7-1.4,1.1c-0.4,0.4-0.8,1-1.1,1.6
	c-0.3,0.6-0.5,1.4-0.7,2.3c-0.2,1.1-0.2,2.1,0.2,2.8c0.4,0.7,0.9,1,1.5,0.9c0.4-0.1,0.7-0.3,1.1-0.7c0.3-0.3,0.6-0.7,0.9-1.3
	c0.4-0.6,0.7-1.3,1-2.3c0.1-1.4,0.2-2.5,0.3-3.3c0.1-0.8,0.2-1.4,0.2-1.9c0.1-0.5,0.2-0.8,0.2-1c0.1-0.1,0.2-0.2,0.4-0.3
	c0.2-0.1,0.4-0.2,0.7-0.3c0.3-0.1,0.5-0.1,0.7-0.1c0.2,0,0.4,0,0.4,0c0,0,0.1,0.3,0.1,0.9c0,0.5,0,1.2-0.1,2.1
	c0,0.8-0.1,1.7-0.1,2.7c0,1-0.1,1.9-0.1,2.7c0,0.9,0,1.6-0.1,2.3C93.4,22.3,93.4,22.7,93.4,22.9z"/>
</svg>
